<svg width="52" height="45" viewBox="0 0 52 45" fill="none" xmlns="http://www.w3.org/2000/svg">
<g filter="url(#filter0_d)">
<path d="M10.977 36.9931C9.62111 36.9045 9.03105 33.7821 8.9055 32.2319C9.21937 32.4165 10.0731 32.8299 10.977 33.007C12.1069 33.2285 12.6718 32.2319 12.9543 32.2319C13.1803 32.2319 13.3623 34.6679 13.4251 35.8859C13.174 36.2919 12.3329 37.0817 10.977 36.9931Z" fill="#2F2F2F"/>
<path d="M16.2498 35.8859C15.4966 35.0001 15.1199 33.5975 15.0258 33.007H16.9089C17.8129 33.007 18.3527 32.7117 18.5096 32.5641C18.8235 33.0439 19.4512 34.225 19.4512 35.1108C19.4512 35.9966 18.8235 36.3657 18.5096 36.4395C18.0702 36.624 17.0031 36.7717 16.2498 35.8859Z" fill="#2F2F2F"/>
<path d="M12.9543 31.014V28.2458H13.8959L14.4608 31.3461C14.6491 31.3461 15.2706 31.4569 16.2498 31.8998C17.2291 32.3427 18.1644 31.7152 18.5096 31.3461L17.8505 29.796L16.2498 27.5815C15.4966 26.142 13.7829 22.8203 12.9543 21.0487C11.9186 18.8342 11.5419 14.4051 11.3536 12.0799C11.203 10.2197 11.8558 5.99 12.201 4.10766C11.793 4.14457 10.7322 4.28482 9.75293 4.55056C8.52888 4.88274 7.86977 5.43637 6.4574 7.54015C5.3275 9.22318 5.9866 12.3752 6.4574 13.7408C5.57859 13.8884 3.85863 15.1138 4.00929 18.8342C4.15994 22.5545 7.3362 24.0752 8.9055 24.3704C8.99966 26.0682 9.13148 29.6631 8.9055 30.4603C8.62303 31.4569 8.9055 31.014 10.977 31.3461C12.6342 31.6119 12.9857 31.2354 12.9543 31.014Z" fill="#2F2F2F"/>
<path d="M15.0258 15.2909C14.555 8.64741 15.4966 4.77202 16.2498 1.89315C16.4213 0.89257 17.7665 0.0238675 19.4512 0.453721C20.9582 0.838239 22.8122 2.52052 23.1234 1.89315C23.6507 0.830189 25.4773 0.195362 26.3248 0.0108194C26.8269 -0.0260891 28.2832 0.0108194 30.0911 0.453721C31.8989 0.896623 33.0414 3.36949 33.3866 4.55056C33.9516 4.40293 35.1568 4.19624 35.4581 4.55056C35.7594 4.90489 36.0858 6.0269 36.2113 6.54362C36.6508 6.54362 37.699 6.61006 38.377 6.8758C39.0549 7.14154 39.6638 8.46286 39.8835 9.09031C40.166 8.86886 41.1076 8.33737 42.6141 7.98305C44.1206 7.62873 45.8155 8.94267 46.4746 9.64394C47.2592 10.4559 48.6026 13.0321 47.6986 16.8411C46.7947 20.6501 43.4301 21.0118 41.8608 20.7165V22.3774C41.6725 23.0417 40.9381 24.6583 39.5069 25.8099C38.0757 26.9614 36.7135 26.6588 36.2113 26.3635L36.9646 31.014C37.0274 31.5307 36.8893 32.6527 35.8347 33.007C34.7801 33.3613 34.0771 33.1546 33.8574 33.007L33.3866 31.014L32.1626 26.3635L31.0327 29.796L30.0911 33.007C29.7144 33.3392 28.6787 33.915 27.5488 33.5606C26.4189 33.2063 26.262 33.0439 26.3248 33.007L27.5488 28.7994C27.3291 29.1316 26.5131 29.796 25.0065 29.796C23.5 29.796 21.6796 28.7625 20.9577 28.2458C19.1374 26.142 15.4024 20.6058 15.0258 15.2909Z" fill="#2F2F2F"/>
<path d="M26.3248 33.8928C26.3253 33.9008 26.3258 33.909 26.3264 33.9176C26.4254 33.97 26.8171 34.1155 27.5488 34.4465C28.528 34.8894 29.4006 34.631 29.7144 34.4465L28.9612 35.8859C28.5845 36.4395 27.4358 36.8824 26.9839 36.4395C26.5394 36.0039 26.362 34.4262 26.3264 33.9176C26.293 33.8999 26.293 33.8928 26.3248 33.8928Z" fill="#2F2F2F"/>
<path d="M35.8347 35.8859C34.9308 35.8859 34.4537 34.9263 34.3282 34.4465C35.5334 34.4465 37.404 33.4868 37.4354 33.007V34.4465C37.2785 34.9263 36.7386 35.8859 35.8347 35.8859Z" fill="#2F2F2F"/>
<path d="M40.8251 1.56098C40.3543 1.22881 39.8835 0.453721 39.5069 2.44679C39.2782 3.65697 39.8306 5.11379 40.3572 6.10073C40.8251 6.8758 41.0322 7.14154 41.8608 6.8758C42.6894 6.61006 43.1477 6.13763 43.2732 6.10073L42.6141 4.55056C42.1747 3.66476 41.2017 1.82672 40.8251 1.56098Z" fill="#2F2F2F"/>
<path d="M46.1921 21.0487C45.9661 21.5801 44.7797 21.8607 44.2148 21.9345C44.2148 22.931 44.3089 24.9905 44.6856 25.2562C45.1564 25.5884 46.4746 20.3843 46.1921 21.0487Z" fill="#2F2F2F"/>
</g>
<defs>
<filter id="filter0_d" x="0" y="0" width="52" height="45" filterUnits="userSpaceOnUse" color-interpolation-filters="sRGB">
<feFlood flood-opacity="0" result="BackgroundImageFix"/>
<feColorMatrix in="SourceAlpha" type="matrix" values="0 0 0 0 0 0 0 0 0 0 0 0 0 0 0 0 0 0 127 0" result="hardAlpha"/>
<feOffset dy="4"/>
<feGaussianBlur stdDeviation="2"/>
<feComposite in2="hardAlpha" operator="out"/>
<feColorMatrix type="matrix" values="0 0 0 0 0 0 0 0 0 0 0 0 0 0 0 0 0 0 0.25 0"/>
<feBlend mode="normal" in2="BackgroundImageFix" result="effect1_dropShadow"/>
<feBlend mode="normal" in="SourceGraphic" in2="effect1_dropShadow" result="shape"/>
</filter>
</defs>
</svg>
